<?xml version="1.0" encoding="UTF-8" standalone="no"?>
<svg
   fill="currentColor"
   viewBox="0 0 200 200"
   version="1.1"
   id="svg1"
   xmlns="http://www.w3.org/2000/svg"
   xmlns:svg="http://www.w3.org/2000/svg">
  <path
     d="m 162.44585,62.101113 v -8.123861 c 0,-2.193181 -2.02146,-3.97727 -4.50645,-3.97727 h -16.73823 c -2.48499,0 -4.50646,1.784089 -4.50646,3.97727 v 4.35568 c -4.23348,-0.423863 -8.2983,-0.752272 -12.05152,-1.006818 0.77768,-15.054539 1.18969,-25.169308 1.2,-25.421581 C 125.84319,20.69772 115.99853,2.2033897e-7 101.9719,2.2033897e-7 h -0.63348 C 87.31178,2.2033897e-7 77.467123,20.69772 77.46841,32.005669 c 0.0077,0.202274 0.415881,10.18977 1.185841,25.1034 -3.487991,0.201137 -6.891004,0.439772 -10.201311,0.718182 v -3.849999 c 0,-2.193181 -2.021464,-3.97727 -4.506448,-3.97727 H 47.209545 c -2.484984,0 -4.506448,1.784089 -4.506448,3.97727 v 7.105679 C 37.066175,62.08634 31.895349,63.238612 27.278172,64.537476 9.1777024,69.628383 0,76.702244 0,85.561331 c 0,5.787498 4.0287643,9.717042 11.975562,11.677268 7.009458,1.728409 16.998321,1.967045 26.747699,1.967045 4.192284,0 8.658818,-0.05 13.385437,-0.104545 5.32147,-0.06023 10.8232,-0.122728 16.628792,-0.122728 4.38928,0 8.490148,0.03863 12.391444,0.113636 0.346352,5.160233 0.714593,10.396593 1.106011,15.626143 1.59657,21.31362 3.283268,38.78862 5.025333,52.07156 -0.947643,-0.007 -1.882408,-0.0136 -2.786273,-0.0204 -1.976399,-0.0159 -3.843356,-0.0306 -5.578981,-0.0306 -8.186285,0 -16.653256,0 -16.653256,5.36023 0,5.51818 13.189729,12.8909 28.413796,14.9875 C 93.345269,198.81818 95.884331,200 98.763307,200 h 5.784993 c 2.88412,0 5.42705,-1.1875 8.11933,-12.9784 14.86483,-2.18864 27.66315,-9.45795 27.66315,-14.8966 0,-5.30908 -8.31891,-5.28295 -16.36356,-5.28295 -1.5515,0 -3.21116,0.0625 -4.96224,0.075 -0.96568,0.007 -1.96095,0.0387 -2.98069,0.0693 1.75107,-13.30681 3.44807,-30.84658 5.05237,-52.26589 0.39013,-5.21022 0.75837,-10.4284 1.10215,-15.571584 1.41888,-0.0079 2.86223,-0.01364 4.3455,-0.01364 6.61675,0 12.87041,0.08182 18.91806,0.161363 5.32534,0.07046 10.35454,0.135227 15.04253,0.135227 20.82364,0 39.5151,-1.061363 39.5151,-13.869313 0,-12.255677 -17.45411,-19.352265 -37.55415,-23.461354 z"
     id="path1"
     style="stroke-width:1.2096" />
</svg>
